<?xml version="1.0" encoding="UTF-8" standalone="no"?>
<svg
   xmlns:dc="http://purl.org/dc/elements/1.1/"
   xmlns:cc="http://creativecommons.org/ns#"
   xmlns:rdf="http://www.w3.org/1999/02/22-rdf-syntax-ns#"
   xmlns:svg="http://www.w3.org/2000/svg"
   xmlns="http://www.w3.org/2000/svg"
   xmlns:sodipodi="http://sodipodi.sourceforge.net/DTD/sodipodi-0.dtd"
   xmlns:inkscape="http://www.inkscape.org/namespaces/inkscape"
   id="Layer_35"
   enable-background="new 0 0 64 64"
   height="512"
   viewBox="0 0 64 64"
   width="512"
   version="1.1"
   sodipodi:docname="agile.svg"
   inkscape:version="0.92.4 (5da689c313, 2019-01-14)">
  <metadata
     id="metadata25">
    <rdf:RDF>
      <cc:Work
         rdf:about="">
        <dc:format>image/svg+xml</dc:format>
        <dc:type
           rdf:resource="http://purl.org/dc/dcmitype/StillImage" />
      </cc:Work>
    </rdf:RDF>
  </metadata>
  <defs
     id="defs23" />
  <sodipodi:namedview
     pagecolor="#ffffff"
     bordercolor="#666666"
     borderopacity="1"
     objecttolerance="10"
     gridtolerance="10"
     guidetolerance="10"
     inkscape:pageopacity="0"
     inkscape:pageshadow="2"
     inkscape:window-width="1280"
     inkscape:window-height="657"
     id="namedview21"
     showgrid="false"
     inkscape:zoom="1.84375"
     inkscape:cx="224.63062"
     inkscape:cy="317.1898"
     inkscape:window-x="-8"
     inkscape:window-y="-8"
     inkscape:window-maximized="1"
     inkscape:current-layer="Layer_35" />
  <path
     d="m13 30h-3c0-9.941 8.059-18 18-18 6.512 0 12.2 3.47 15.36 8.65l3.434-2.09c-3.862-6.332-10.834-10.56-18.794-10.56-12.15 0-22 9.85-22 22h-3l5 8z"
     id="path2"
     style="fill:#ff6600" />
  <path
     d="m61 50-8-5v3h-12.358c5.658-3.981 9.358-10.556 9.358-18h3l-5-8-5 8h3c0 9.941-8.059 18-18 18h-27v4h52v3z"
     id="path4"
     style="fill:#ff6600" />
  <path
     d="m35 17h2v4h-2z"
     id="path6"
     style="fill:#ff6600" />
  <path
     d="m31 17h2v4h-2z"
     id="path8"
     style="fill:#ff6600" />
  <path
     d="m27 17h2v4h-2z"
     id="path10"
     style="fill:#ff6600" />
  <path
     d="m23 17h2v4h-2z"
     id="path12"
     style="fill:#ff6600" />
  <path
     d="m19 17h2v4h-2z"
     id="path14"
     style="fill:#ff6600" />
  <path
     d="m17 40c0 .551.448 1 1 1h20c.552 0 1-.449 1-1v-13h-22zm18-11h2v2h-2zm0 4h2v2h-2zm0 4h2v2h-2zm-4-8h2v2h-2zm0 4h2v2h-2zm0 4h2v2h-2zm-4-8h2v2h-2zm0 4h2v2h-2zm0 4h2v2h-2zm-4-8h2v2h-2zm0 4h2v2h-2zm0 4h2v2h-2zm-4-8h2v2h-2zm0 4h2v2h-2zm0 4h2v2h-2z"
     id="path16"
     style="fill:#ff6600" />
  <path
     d="m39 21h-2v2h-2v-2h-2v2h-2v-2h-2v2h-2v-2h-2v2h-2v-2h-2v2h-2v-2h-2v4h22z"
     id="path18"
     style="fill:#ff6600" />
</svg>
