<?xml version="1.0" encoding="UTF-8" standalone="no"?>
<svg
   xmlns:dc="http://purl.org/dc/elements/1.1/"
   xmlns:cc="http://creativecommons.org/ns#"
   xmlns:rdf="http://www.w3.org/1999/02/22-rdf-syntax-ns#"
   xmlns:svg="http://www.w3.org/2000/svg"
   xmlns="http://www.w3.org/2000/svg"
   xmlns:sodipodi="http://sodipodi.sourceforge.net/DTD/sodipodi-0.dtd"
   xmlns:inkscape="http://www.inkscape.org/namespaces/inkscape"
   height="851.33575pt"
   viewBox="-8 0 1085.2173 851.33576"
   width="1085.2173pt"
   version="1.1"
   id="svg14"
   sodipodi:docname="chat.svg"
   inkscape:version="0.92.3 (2405546, 2018-03-11)">
  <metadata
     id="metadata20">
    <rdf:RDF>
      <cc:Work
         rdf:about="">
        <dc:format>image/svg+xml</dc:format>
        <dc:type
           rdf:resource="http://purl.org/dc/dcmitype/StillImage" />
        <dc:title />
      </cc:Work>
    </rdf:RDF>
  </metadata>
  <defs
     id="defs18" />
  <sodipodi:namedview
     pagecolor="#ffffff"
     bordercolor="#666666"
     borderopacity="1"
     objecttolerance="10"
     gridtolerance="10"
     guidetolerance="10"
     inkscape:pageopacity="0"
     inkscape:pageshadow="2"
     inkscape:window-width="1920"
     inkscape:window-height="1017"
     id="namedview16"
     showgrid="false"
     showguides="false"
     fit-margin-top="0"
     fit-margin-left="0"
     fit-margin-right="0"
     fit-margin-bottom="0"
     inkscape:zoom="0.35685484"
     inkscape:cx="119.76499"
     inkscape:cy="591.98188"
     inkscape:window-x="2728"
     inkscape:window-y="-8"
     inkscape:window-maximized="1"
     inkscape:current-layer="svg14" />
  <g
     transform="matrix(5.9999998,0,0,5.9999998,728.22727,-12)"
     id="Intelligence_Assistance"
     data-name="Intelligence Assistance">
    <path
       style="fill:#acabb1"
       inkscape:connector-curvature="0"
       d="M 50.65,49.66 38,47 V 44 H 26 v 3 L 13.35,49.66 A 8.005,8.005 0 0 0 7,57.49 V 61 h 50 v -3.51 a 8.005,8.005 0 0 0 -6.35,-7.83 z"
       id="path2-0" />
    <path
       style="fill:#898890"
       inkscape:connector-curvature="0"
       d="M 41,52 H 23 l -4,3 v 6 H 23.77 28.23 45 v -6 z"
       id="path4-3" />
    <path
       style="fill:#c6c5ca"
       inkscape:connector-curvature="0"
       d="m 45,20 v 18 l -6,6 H 25 L 19,38 V 20 A 12.962,12.962 0 0 1 22.81,10.81 11.909,11.909 0 0 1 24,9.76 13,13 0 0 1 45,20 Z"
       id="path6-7" />
    <path
       style="fill:#25d366;fill-opacity:1"
       inkscape:connector-curvature="0"
       d="m 55,25 v 2 a 4,4 0 0 1 -4,4 H 48 V 21 h 3 a 4,4 0 0 1 4,4 z"
       id="path8" />
    <path
       style="fill:#25d366;fill-opacity:1"
       inkscape:connector-curvature="0"
       d="m 49,22 v 8 a 2,2 0 0 1 -4,0 v -8 a 2.006,2.006 0 0 1 2,-2 2.015,2.015 0 0 1 2,2 z"
       id="path10" />
    <circle
       style="fill:#e6e7e8"
       cx="38"
       cy="24"
       r="3"
       id="circle12" />
    <path
       style="fill:#898890"
       inkscape:connector-curvature="0"
       d="m 34,32 h 4 v 4 h -4 z"
       id="path14" />
    <path
       style="fill:#898890"
       inkscape:connector-curvature="0"
       d="M 35,7.35 V 12 l -1,3 H 30 L 29,12 V 7.35 a 13.032,13.032 0 0 1 6,0 z"
       id="path16" />
    <path
       style="fill:#acabb1"
       inkscape:connector-curvature="0"
       d="m 30,32 h 4 v 4 h -4 z"
       id="path18" />
    <path
       style="fill:#898890"
       inkscape:connector-curvature="0"
       d="m 26,32 h 4 v 4 h -4 z"
       id="path20" />
    <path
       style="fill:#e6e7e8"
       inkscape:connector-curvature="0"
       d="m 29,59 a 2.965,2.965 0 0 1 -0.77,2 H 23.77 A 2.965,2.965 0 0 1 23,59 a 3,3 0 0 1 6,0 z"
       id="path22" />
    <circle
       style="fill:#e6e7e8"
       cx="26"
       cy="24"
       r="3"
       id="circle24" />
    <path
       style="fill:#25d366;fill-opacity:1"
       inkscape:connector-curvature="0"
       d="M 16,31 H 13 A 4,4 0 0 1 9,27 v -2 a 4,4 0 0 1 4,-4 h 3 z"
       id="path26" />
    <path
       style="fill:#25d366;fill-opacity:1"
       inkscape:connector-curvature="0"
       d="m 19,22 v 8 a 2,2 0 0 1 -4,0 v -8 a 2.015,2.015 0 0 1 2,-2 2.006,2.006 0 0 1 2,2 z"
       id="path28" />
    <path
       style="fill:#898890"
       inkscape:connector-curvature="0"
       d="m 26,44 h 12 v 2 H 26 Z"
       id="path30" />
    <path
       inkscape:connector-curvature="0"
       d="M 50.854,48.685 39,46.188 V 45 a 1,1 0 0 0 0.707,-0.293 L 43.414,41 H 49 a 3,3 0 0 0 3,-3 V 31.9 A 5.009,5.009 0 0 0 56,27 V 25 A 5.006,5.006 0 0 0 51.954,20.1 19.007,19.007 0 0 0 33,2 H 31 A 19.007,19.007 0 0 0 12.046,20.1 5.006,5.006 0 0 0 8,25 v 2 a 5.006,5.006 0 0 0 5,5 h 1.78 A 2.919,2.919 0 0 0 18,32.816 V 38 a 1,1 0 0 0 0.293,0.707 l 6,6 A 1,1 0 0 0 25,45 v 1.188 l -11.854,2.5 A 9.04,9.04 0 0 0 6,57.491 V 61 a 1,1 0 0 0 1,1 h 50 a 1,1 0 0 0 1,-1 V 57.491 A 9.04,9.04 0 0 0 50.854,48.685 Z M 49,39 h -3.586 l 0.293,-0.293 A 1,1 0 0 0 46,38 V 32.816 A 2.919,2.919 0 0 0 49.22,32 H 50 v 6 a 1,1 0 0 1 -1,1 z m -1,-9 a 1,1 0 0 1 -2,0 v -8 a 1,1 0 0 1 2,0 z m 6,-5 v 2 a 3,3 0 0 1 -3,3 h -1 v -8 h 1 a 3,3 0 0 1 3,3 z M 31,4 h 2 A 17.007,17.007 0 0 1 49.949,20 H 49.22 A 2.93,2.93 0 0 0 45.959,19.2 13.981,13.981 0 0 0 18.041,19.2 2.93,2.93 0 0 0 14.78,20 H 14.051 A 17.007,17.007 0 0 1 31,4 Z m -1,4.181 a 11.14,11.14 0 0 1 4,0 v 3.657 L 33.279,14 H 30.721 L 30,11.838 Z M 13,30 a 3,3 0 0 1 -3,-3 v -2 a 3,3 0 0 1 3,-3 h 1 v 8 z m 4,1 a 1,1 0 0 1 -1,-1 v -8 a 1,1 0 0 1 2,0 v 8 a 1,1 0 0 1 -1,1 z m 3,6.586 V 20 a 11.938,11.938 0 0 1 3,-7.911 V 15 a 1,1 0 0 0 0.293,0.707 l 2,2 1.414,-1.414 L 25,14.586 V 10.273 A 11.939,11.939 0 0 1 28,8.7 V 12 a 1,1 0 0 0 0.052,0.316 l 1,3 A 1,1 0 0 0 30,16 h 4 a 1,1 0 0 0 0.948,-0.684 l 1,-3 A 1,1 0 0 0 36,12 V 8.7 a 11.939,11.939 0 0 1 3,1.573 v 4.313 l -1.707,1.707 1.414,1.414 2,-2 A 1,1 0 0 0 41,15 V 12.089 A 11.938,11.938 0 0 1 44,20 V 37.586 L 42.586,39 H 34 v 2 h 6.586 l -2,2 H 25.414 Z M 44,60 H 29.857 a 4,4 0 1 0 -7.714,0 H 20 V 55.5 L 23.333,53 H 40.667 L 44,55.5 Z M 24,59 a 2,2 0 0 1 4,0 1.982,1.982 0 0 1 -0.274,1 H 24.274 A 1.982,1.982 0 0 1 24,59 Z m 32,1 h -2 v -2 h -2 v 2 h -2 v -2.586 l 2.707,-2.707 -1.414,-1.414 -3,3 A 1,1 0 0 0 48,57 v 3 h -2 v -5 a 1,1 0 0 0 -0.4,-0.8 l -4,-3 A 1,1 0 0 0 41,51 H 23 a 1,1 0 0 0 -0.6,0.2 l -4,3 A 1,1 0 0 0 18,55 v 5 h -2 v -3 a 1,1 0 0 0 -0.293,-0.707 l -3,-3 -1.414,1.414 L 14,57.414 V 60 h -2 v -2 h -2 v 2 H 8 v -2.509 a 7.029,7.029 0 0 1 5.558,-6.849 L 26.206,47.979 A 1,1 0 0 0 27,47 v -2 h 10 v 2 a 1,1 0 0 0 0.794,0.979 l 12.648,2.663 A 7.029,7.029 0 0 1 56,57.491 Z"
       id="path32"
       style="fill:#4d4d4d;fill-opacity:1" />
    <path
       inkscape:connector-curvature="0"
       d="m 38,37 a 1,1 0 0 0 1,-1 V 32 A 1,1 0 0 0 38,31 H 26 a 1,1 0 0 0 -1,1 v 4 a 1,1 0 0 0 1,1 z m -7,-2 v -2 h 2 v 2 z m 6,0 h -2 v -2 h 2 z M 27,33 h 2 v 2 h -2 z"
       id="path34"
       style="fill:#4d4d4d;fill-opacity:1" />
    <path
       inkscape:connector-curvature="0"
       d="m 30,24 a 4,4 0 1 0 -4,4 4,4 0 0 0 4,-4 z m -6,0 a 2,2 0 1 1 2,2 2,2 0 0 1 -2,-2 z"
       id="path36"
       style="fill:#4d4d4d;fill-opacity:1" />
    <path
       inkscape:connector-curvature="0"
       d="m 38,28 a 4,4 0 1 0 -4,-4 4,4 0 0 0 4,4 z m 0,-6 a 2,2 0 1 1 -2,2 2,2 0 0 1 2,-2 z"
       id="path38"
       style="fill:#4d4d4d;fill-opacity:1" />
    <path
       inkscape:connector-curvature="0"
       d="m 34,56 h 8 v 2 h -8 z"
       id="path40"
       style="fill:#4d4d4d;fill-opacity:1" />
  </g>
  <g
     transform="matrix(0.74999998,0,0,0.74999998,712.71731,467.33578)"
     id="g12">
    <g
       id="g10">
      <path
         inkscape:connector-curvature="0"
         d="m 390.622,363.663 -47.53,-15.84 -17.063,-34.127 c 15.372,-15.646 26.045,-36.348 29.644,-57.941 L 357.801,243 H 376 c 16.542,0 30,-13.458 30,-30 V 150 C 406,67.29 338.71,0 256,0 173.078,0 106,67.097 106,150 v 63 c 0,13.036 8.361,24.152 20,28.28 V 253 c 0,16.542 13.458,30 30,30 h 8.782 c 4.335,9.417 9.946,18.139 16.774,25.974 1.416,1.628 2.893,3.206 4.406,4.741 l -17.054,34.108 -47.531,15.841 C 66.112,382.092 26,440.271 26,502 c 0,5.523 4.477,10 10,10 h 440 c 5.522,0 10,-4.477 10,-10 0,-61.729 -40.111,-119.908 -95.378,-138.337 z M 386,213 c 0,5.514 -4.486,10 -10,10 h -15.262 c 2.542,-19.69 4.236,-40.643 4.917,-61.28 0.02,-0.582 0.036,-1.148 0.054,-1.72 H 386 Z m -250,10 c -5.514,0 -10,-4.486 -10,-10 v -53 h 20.298 c 0.033,1.043 0.068,2.091 0.107,3.146 0.001,0.036 0.003,0.071 0.004,0.107 0,0.003 0,0.006 0,0.009 0.7,20.072 2.372,40.481 4.856,59.737 H 136 Z m 20,40 c -5.514,0 -10,-4.486 -10,-10 v -10 h 8.198 l 2.128,12.759 c 0.406,2.425 0.905,4.841 1.482,7.241 z M 146.017,140 H 126.38 C 131.445,72.979 187.377,20 256,20 324.318,20 380.496,72.972 385.619,140 H 365.984 C 365.264,84.773 320.291,40 264.951,40 h -17.9 C 191.712,40 146.736,84.773 146.017,140 Z M 247.05,60 h 17.9 c 44.809,0 81.076,36.651 81.05,81.41 0,3.147 -0.025,5.887 -0.078,8.38 0,0.032 -0.001,0.065 -0.001,0.098 l -12.508,-1.787 C 299.433,143.249 267.349,127.207 243.071,102.929 241.195,101.054 238.652,100 236,100 209.144,100 183.436,112.236 166.442,132.908 170.63,92.189 205.053,60 247.05,60 Z m -68.51,203 c -5.006,-16.653 -10.734,-65.653 -12,-97.053 l 13.459,-17.946 c 12.361,-16.476 31.592,-26.713 52.049,-27.888 26.917,25.616 61.739,42.532 98.537,47.786 l 14.722,2.104 c -0.984,20.885 -2.995,41.843 -5.876,61.118 -10e-4,0.006 -0.002,0.013 -0.003,0.02 -0.916,6.197 -1.638,10.185 -3.482,21.324 -5.296,31.765 -28.998,60.49 -60.287,68.313 -12.877,3.215 -26.443,3.214 -39.313,0 C 216.809,315.894 198.895,302.376 187.334,283 h 20.386 c 4.128,11.639 15.243,20 28.28,20 h 20 c 16.575,0 30,-13.424 30,-30 0,-16.542 -13.458,-30 -30,-30 h -20 c -13.327,0 -24.278,8.608 -28.297,20 z m 56.619,78.016 c 6.859,1.445 13.852,2.184 20.841,2.184 5.471,0 10.943,-0.458 16.353,-1.346 l -17.67,18.687 z m 5.776,34.063 -31.718,33.542 c -8.732,-16.714 -16.235,-34.109 -22.389,-51.917 l 11.911,-23.822 z m 70.631,-45.585 13.604,27.209 c -6.164,17.838 -13.669,35.239 -22.392,51.933 L 268.83,374.688 Z M 226,273 c 0,-5.521 4.478,-10 10,-10 h 20 c 5.514,0 10,4.486 10,10 0,5.522 -4.479,10 -10,10 h -20 c -5.514,0 -10,-4.486 -10,-10 z M 46.4,492 c 3.963,-49.539 36.932,-94.567 81.302,-109.363 l 42.094,-14.028 c 7.712,21.325 17.266,42.052 28.463,61.74 0.019,0.034 0.037,0.068 0.056,0.101 0,0.001 0.001,0.001 0.001,0.002 8.181,14.389 17.389,28.45 27.372,41.799 L 237.99,492 Z M 256,483.086 242.438,461.313 c -0.152,-0.244 -0.314,-0.481 -0.486,-0.711 C 233.854,449.8 226.3,438.503 219.42,426.94 l 35.663,-37.714 37.578,37.578 c -6.926,11.647 -14.506,22.991 -22.611,33.796 -0.49,0.653 0.205,-0.376 -14.05,22.486 z m 18.01,8.914 12.301,-19.748 c 10.027,-13.4 19.301,-27.574 27.564,-42.132 0.05,-0.088 0.097,-0.178 0.147,-0.266 0.006,-0.011 0.012,-0.021 0.018,-0.032 11.055,-19.5 20.509,-40.047 28.164,-61.213 l 42.093,14.028 c 44.371,14.796 77.34,59.824 81.303,109.363 z"
         id="path8-3"
         style="fill:#4d4d4d;fill-opacity:1" />
    </g>
  </g>
  <circle
     style="fill:#25d366;fill-opacity:1;stroke:none;stroke-width:7.653543;stroke-linejoin:round;stroke-miterlimit:4;stroke-dasharray:none;stroke-opacity:1"
     id="path887"
     cx="601.09943"
     cy="413.96558"
     r="113.49152" />
  <circle
     style="fill:#498fd1;fill-opacity:1;stroke:none;stroke-width:1.41732275;stroke-linejoin:round;stroke-miterlimit:4;stroke-dasharray:none;stroke-opacity:1"
     id="path887-5"
     cx="704.83447"
     cy="522.52631"
     r="21.016949" />
  <circle
     style="fill:#498fd1;fill-opacity:1;stroke:none;stroke-width:1.41732275;stroke-linejoin:round;stroke-miterlimit:4;stroke-dasharray:none;stroke-opacity:1"
     id="path887-5-7"
     cx="701.81592"
     cy="299.33307"
     r="21.016951" />
  <circle
     style="fill:#498fd1;fill-opacity:1;stroke:none;stroke-width:1.41732275;stroke-linejoin:round;stroke-miterlimit:4;stroke-dasharray:none;stroke-opacity:1"
     id="path887-5-1"
     cx="454.87061"
     cy="415.46558"
     r="21.016951" />
  <circle
     style="fill:#498fd1;fill-opacity:1;stroke:none;stroke-width:0.92125982;stroke-linejoin:round;stroke-miterlimit:4;stroke-dasharray:none;stroke-opacity:1"
     id="path887-5-1-4"
     cx="386.32117"
     cy="415.2854"
     r="13.661018" />
  <circle
     style="fill:#498fd1;fill-opacity:1;stroke:none;stroke-width:0.92125982;stroke-linejoin:round;stroke-miterlimit:4;stroke-dasharray:none;stroke-opacity:1"
     id="path887-5-1-4-0"
     cx="756.62488"
     cy="576.84692"
     r="13.661018" />
  <circle
     style="fill:#498fd1;fill-opacity:1;stroke:none;stroke-width:0.92125982;stroke-linejoin:round;stroke-miterlimit:4;stroke-dasharray:none;stroke-opacity:1"
     id="path887-5-1-4-0-3"
     cx="761.11639"
     cy="243.7283"
     r="13.661018" />
  <path
     style="fill:#000080;fill-opacity:1;stroke:none;stroke-width:16.6601181;stroke-linejoin:round;stroke-miterlimit:4;stroke-dasharray:none;stroke-opacity:1"
     d="m 916.46467,835.64864 c 1.0561,-2.06572 7.1454,-11.8589 13.5316,-21.76261 11.58263,-17.96224 27.26233,-48.62724 34.04823,-66.5888 l 3.581,-9.47811 20.8624,7.47067 c 11.4744,4.10888 24.0754,9.4392 28.0022,11.84501 10.7506,6.58655 24.707,20.85827 32.2786,33.00789 7.4036,11.87989 15.9234,35.28523 15.9571,43.83668 l 0.022,5.42517 h -75.1015 -75.10153 z"
     id="path985"
     inkscape:connector-curvature="0" />
  <path
     style="fill:#498fd1;fill-opacity:1;stroke:none;stroke-width:16.39760971;stroke-linejoin:round;stroke-miterlimit:4;stroke-dasharray:none;stroke-opacity:1"
     d="m 743.94883,834.08307 c 3.99736,-24.15916 19.1127,-51.00898 36.66152,-65.12283 10.95522,-8.81079 18.95968,-12.79366 40.2455,-20.02505 l 20.60828,-7.00115 3.71615,9.88991 c 6.05412,16.11186 20.36854,43.51585 31.55695,60.41374 5.7469,8.67955 12.1637,18.50995 14.25955,21.84538 l 3.81074,6.06453 h -75.931 -75.93109 z"
     id="path987"
     inkscape:connector-curvature="0" />
  <path
     style="fill:#53d769;fill-opacity:1;stroke:none;stroke-width:15.16547298;stroke-linejoin:round;stroke-miterlimit:4;stroke-dasharray:none;stroke-opacity:1"
     d=""
     id="path989"
     inkscape:connector-curvature="0" />
  <path
     style="fill:#4d4d4d;fill-opacity:1;stroke:none;stroke-width:18.65502739;stroke-linejoin:round;stroke-miterlimit:4;stroke-dasharray:none;stroke-opacity:1"
     d="m 960.8912,592.35921 c -23.07593,-5.88276 -41.69683,-17.29471 -61.13873,-37.46914 -8.51927,-8.84019 -11.49427,-10.77062 -16.53515,-10.72946 -14.92781,0.12196 -32.82249,9.21012 -45.20177,22.9568 l -7.72724,8.58071 1.21377,-7.06747 c 3.81972,-22.24196 19.12126,-45.72081 36.61198,-56.17789 10.35939,-6.19352 11.10193,-6.32778 34.99771,-6.32778 23.114,0 24.9123,0.29471 33.7768,5.53537 21.64623,12.79725 36.85883,40.13944 38.32053,68.87485 0.8585,16.87557 1.9527,15.97196 -14.3179,11.82401 z"
     id="path1011"
     inkscape:connector-curvature="0" />
  <path
     style="fill:#498fd1;fill-opacity:1;stroke:none;stroke-width:15.16547298;stroke-linejoin:round;stroke-miterlimit:4;stroke-dasharray:none;stroke-opacity:1"
     d="m 917.31226,835.36093 c 1.24087,-2.39948 6.3039,-10.78778 11.2512,-18.64065 11.4501,-18.17453 28.09534,-50.05868 34.15334,-65.42093 2.5786,-6.53895 4.9193,-12.12225 5.2014,-12.4074 1.3987,-1.41307 43.7869,15.83813 51.388,20.91398 11.3338,7.56832 25.2775,23.10532 31.6931,35.3142 6.7188,12.78592 12.7455,31.014 12.7455,38.54947 v 6.054 h -74.3443 -74.34424 z"
     id="path1013"
     inkscape:connector-curvature="0" />
  <path
     style="fill:#498fd1;fill-opacity:1;stroke:none;stroke-width:0.94784206;stroke-linejoin:round;stroke-miterlimit:4;stroke-dasharray:none;stroke-opacity:1"
     d="m 873.70291,347.59202 c -0.34658,-0.59136 -0.84038,-1.85603 -1.0575,-2.70825 -1.5327,-6.01548 1.89982,-12.24744 7.83787,-14.23015 2.73563,-0.91341 6.02708,-0.74228 8.66715,0.45062 2.9637,1.3391 5.40533,4.05193 6.43035,7.1446 0.95588,2.88395 0.70395,6.29327 -0.6675,9.03284 l -0.3603,0.71985 h -10.30507 -10.305 z"
     id="path1017"
     inkscape:connector-curvature="0" />
  <path
     style="fill:#25d366;fill-opacity:1;stroke:none;stroke-width:2.68090224;stroke-linejoin:round;stroke-miterlimit:4;stroke-dasharray:none;stroke-opacity:1"
     d="m 812.24453,634.01488 c -1.54605,-0.54784 -3.4635,-2.32898 -4.1925,-3.89453 l -0.61635,-1.32357 v -20.68857 -20.68855 h 7.43475 7.43475 l 0.31965,7.20533 c 0.333,7.50705 0.82103,14.75193 1.5054,22.34975 0.47595,5.28365 1.64483,16.03659 1.83473,16.87924 l 0.13327,0.5911 -6.37575,-0.0207 c -4.9167,-0.016 -6.62685,-0.1097 -7.47285,-0.40946 z"
     id="path1023"
     inkscape:connector-curvature="0" />
  <path
     style="fill:#25d366;fill-opacity:1;stroke:none;stroke-width:2.68090224;stroke-linejoin:round;stroke-miterlimit:4;stroke-dasharray:none;stroke-opacity:1"
     d="m 983.4476,634.3837 c 0,-0.0518 0.2905,-2.63047 0.6456,-5.73038 1.3136,-11.46561 2.1933,-22.43685 2.769,-34.53451 0.1443,-3.03432 0.2627,-5.78294 0.2629,-6.10805 l 4e-4,-0.5911 h 7.4934 7.4934 l -0.072,20.81991 -0.072,20.81992 -0.62,1.1822 c -0.8461,1.61326 -1.7661,2.54801 -3.3207,3.37408 -1.3074,0.6947 -1.3446,0.69834 -7.947,0.78003 -3.6485,0.0452 -6.6335,0.0397 -6.6335,-0.0121 z"
     id="path1025"
     inkscape:connector-curvature="0" />
  <path
     style="fill:#25d366;fill-opacity:1;stroke:none;stroke-width:2.68090224;stroke-linejoin:round;stroke-miterlimit:4;stroke-dasharray:none;stroke-opacity:1"
     d="m 887.22878,678.9989 c -2.1297,-0.77062 -3.8007,-2.54835 -4.5426,-4.83292 -1.09365,-3.3678 0.70088,-7.26638 4.0599,-8.82 1.15733,-0.53528 1.57973,-0.5577 10.53195,-0.5577 h 9.32625 l 1.33725,0.7056 c 1.56968,0.8283 2.86905,2.2212 3.58793,3.84615 0.65242,1.47502 0.55492,4.3953 -0.1986,5.94802 -0.64253,1.32405 -2.0826,2.76878 -3.42173,3.43268 -0.9696,0.48075 -1.69087,0.5208 -10.36837,0.57577 -7.3146,0.0465 -9.53888,-0.018 -10.31198,-0.2976 z"
     id="path1027"
     inkscape:connector-curvature="0" />
  <path
     style="fill:#ffccaa;fill-opacity:1;stroke:none;stroke-width:0.67022556;stroke-linejoin:round;stroke-miterlimit:4;stroke-dasharray:none;stroke-opacity:1"
     d="m 896.44778,730.43878 c -3.99127,-3.99143 -7.2318,-7.25708 -7.2012,-7.25708 0.0308,0 0.68078,0.11693 1.4448,0.2598 4.45965,0.83415 8.27963,1.21965 12.81713,1.29345 4.11435,0.0667 7.87222,-0.1662 11.82202,-0.7335 0.83085,-0.11932 1.5153,-0.21217 1.521,-0.2064 0.0113,0.0113 -12.41685,13.16573 -12.87007,13.62195 l -0.2769,0.27878 z"
     id="path1029"
     inkscape:connector-curvature="0" />
  <path
     style="fill:#ffccaa;fill-opacity:1;stroke:none;stroke-width:2.68090224;stroke-linejoin:round;stroke-miterlimit:4;stroke-dasharray:none;stroke-opacity:1"
     d="m 898.98331,709.35433 c -17.79668,-1.8117 -33.25718,-11.31848 -43.75328,-26.90408 -0.9327,-1.38502 -1.69582,-2.59672 -1.69582,-2.6928 0,-0.096 3.33967,-0.17137 7.42155,-0.16755 l 7.42162,0.008 0.786,1.75808 c 1.2111,2.709 2.6376,4.7424 4.83855,6.8973 3.65078,3.57412 8.46375,5.80357 13.60973,6.30412 3.40575,0.33128 16.39672,0.32873 19.38442,-0.008 13.07828,-1.45575 22.22708,-13.4367 19.9986,-26.18955 -1.56382,-8.94945 -7.84995,-15.76267 -16.84612,-18.2589 -2.00873,-0.5574 -2.57213,-0.58357 -12.74153,-0.59242 -10.1475,-0.009 -10.74562,0.018 -12.92782,0.57427 -4.1034,1.04655 -7.25858,2.7633 -10.28963,5.59868 -1.90005,1.77742 -4.28805,5.14095 -5.18887,7.3086 l -0.56198,1.35217 h -10.86022 -10.86015 l -0.3963,-1.37917 c -2.8575,-9.94575 -6.6855,-39.83721 -8.18618,-63.92249 l -0.44302,-7.11102 5.90647,-7.86356 c 3.24855,-4.32496 6.8424,-8.85925 7.98638,-10.07619 5.69467,-6.05823 13.2405,-10.91201 21.25215,-13.67017 3.5889,-1.23555 8.69775,-2.34006 11.80882,-2.553 l 2.12055,-0.14516 2.0214,1.85087 c 16.1901,14.82407 37.22115,26.05766 58.57317,31.28655 5.5151,1.35055 8.5059,1.90543 16.9842,3.15093 3.8,0.55825 6.9817,1.08756 7.0704,1.17622 0.3564,0.35645 -1.0049,18.74468 -2.1709,29.32402 -1.2977,11.7733 -4.4346,32.0646 -5.7635,37.28085 -2.167,8.50665 -6.111,16.70932 -11.4748,23.86515 -2.305,3.07507 -7.6903,8.6754 -10.59587,11.01907 -8.74785,7.05585 -18.606,11.2494 -29.5551,12.57218 -2.69985,0.32617 -10.4631,0.44902 -12.87292,0.2037 z"
     id="path1033"
     inkscape:connector-curvature="0" />
  <g
     transform="matrix(17.906555,0,0,17.479496,-139.32667,106.37184)"
     id="g4">
    <path
       inkscape:connector-curvature="0"
       d="M 25.302,0 H 9.698 C 8.398,0 7.334,1.063 7.334,2.364 V 32.635 C 7.334,33.936 8.398,35 9.698,35 h 15.604 c 1.3,0 2.364,-1.062 2.364,-2.364 V 2.364 C 27.666,1.063 26.602,0 25.302,0 Z M 15.004,1.704 h 4.992 c 0.158,0 0.286,0.128 0.286,0.287 0,0.158 -0.128,0.286 -0.286,0.286 h -4.992 c -0.158,0 -0.286,-0.128 -0.286,-0.286 0,-0.159 0.128,-0.287 0.286,-0.287 z M 17.5,33.818 c -0.653,0 -1.182,-0.529 -1.182,-1.183 0,-0.654 0.529,-1.182 1.182,-1.182 0.653,0 1.182,0.528 1.182,1.182 0,0.654 -0.529,1.183 -1.182,1.183 z m 8.521,-3.193 H 8.979 V 3.749 h 17.042 z"
       id="path2"
       style="fill:#4d4d4d;fill-opacity:1" />
  </g>
  <rect
     style="fill:#25d366;fill-opacity:1;stroke:#25d366;stroke-width:6.10681725;stroke-linejoin:round;stroke-miterlimit:4;stroke-dasharray:none;stroke-opacity:1"
     id="rect1043"
     width="156.10349"
     height="29.039997"
     x="148.20686"
     y="282.78067" />
  <rect
     style="fill:#25d366;fill-opacity:1;stroke:#25d366;stroke-width:6.35862017;stroke-linejoin:round;stroke-miterlimit:4;stroke-dasharray:none;stroke-opacity:1"
     id="rect1043-4"
     width="157.52126"
     height="31.200819"
     x="147.49796"
     y="409.14154" />
  <rect
     style="fill:#498fd1;fill-opacity:1;stroke:#498fd1;stroke-width:6.10681725;stroke-linejoin:round;stroke-miterlimit:4;stroke-dasharray:none;stroke-opacity:1"
     id="rect1043-3-0"
     width="156.1035"
     height="29.040001"
     x="41.206028"
     y="351.24698" />
  <rect
     style="fill:#25d366;fill-opacity:1;stroke:#25d366;stroke-width:6.35862064;stroke-linejoin:round;stroke-miterlimit:4;stroke-dasharray:none;stroke-opacity:1"
     id="rect1043-4-9"
     width="157.52126"
     height="31.200819"
     x="147.49796"
     y="440.34235" />
  <rect
     style="fill:#498fd1;fill-opacity:1;stroke:#498fd1;stroke-width:6.10681772;stroke-linejoin:round;stroke-miterlimit:4;stroke-dasharray:none;stroke-opacity:1"
     id="rect1043-3-0-6"
     width="156.10352"
     height="29.040003"
     x="41.206013"
     y="218.70695" />
</svg>
