<?xml version="1.0" encoding="UTF-8" standalone="no"?>
<!-- Generator: Adobe Illustrator 16.0.0, SVG Export Plug-In . SVG Version: 6.00 Build 0)  -->

<svg
   xmlns:dc="http://purl.org/dc/elements/1.1/"
   xmlns:cc="http://creativecommons.org/ns#"
   xmlns:rdf="http://www.w3.org/1999/02/22-rdf-syntax-ns#"
   xmlns:svg="http://www.w3.org/2000/svg"
   xmlns="http://www.w3.org/2000/svg"
   xmlns:sodipodi="http://sodipodi.sourceforge.net/DTD/sodipodi-0.dtd"
   xmlns:inkscape="http://www.inkscape.org/namespaces/inkscape"
   version="1.1"
   id="Capa_1"
   x="0px"
   y="0px"
   width="502.436px"
   height="502.436px"
   viewBox="0 0 502.436 502.436"
   style="enable-background:new 0 0 502.436 502.436;"
   xml:space="preserve"
   sodipodi:docname="logo.svg"
   inkscape:version="0.92.3 (2405546, 2018-03-11)"><metadata
   id="metadata55"><rdf:RDF><cc:Work
       rdf:about=""><dc:format>image/svg+xml</dc:format><dc:type
         rdf:resource="http://purl.org/dc/dcmitype/StillImage" /></cc:Work></rdf:RDF></metadata><defs
   id="defs53" /><sodipodi:namedview
   pagecolor="#ffffff"
   bordercolor="#666666"
   borderopacity="1"
   objecttolerance="10"
   gridtolerance="10"
   guidetolerance="10"
   inkscape:pageopacity="0"
   inkscape:pageshadow="2"
   inkscape:window-width="1920"
   inkscape:window-height="1017"
   id="namedview51"
   showgrid="false"
   inkscape:zoom="1.3285449"
   inkscape:cx="168.63462"
   inkscape:cy="198.87727"
   inkscape:window-x="2728"
   inkscape:window-y="-8"
   inkscape:window-maximized="1"
   inkscape:current-layer="Capa_1" />
<g
   id="g18">
	<g
   id="g16">
		<path
   d="M402.481,300.41c0.033-0.051,0.068-0.098,0.102-0.148C402.86,299.793,402.459,300.432,402.481,300.41z"
   id="path2" />
		<path
   d="M402.581,199.504c-0.029-0.055-0.062-0.105-0.094-0.16c0.064,0.113,0.143,0.254,0.201,0.359    C402.651,199.637,402.616,199.571,402.581,199.504z"
   id="path4" />
		<path
   d="M406.079,55.139C406.471,54.674,405.678,55.6,406.079,55.139L406.079,55.139z"
   id="path6" />
		<g
   id="g12">
			<path
   d="M292.844,383.368C293.102,383.25,293.04,383.279,292.844,383.368L292.844,383.368z"
   id="path8" />
			<path
   d="M465.85,19.072c-1.174-2.404-2.348-4.809-3.521-7.215c-3.99,2.063-7.865,4.352-11.678,6.723     c-2.168,1.35-4.312,2.74-6.438,4.156l-2.803,1.896c-0.859-1.303-1.721-2.605-2.578-3.91l2.768-1.709     c2.293-1.393,4.604-2.76,6.939-4.078c3.986-2.254,8.037-4.42,12.189-6.348c-0.797-1.635-1.596-3.27-2.395-4.904     c-0.473-0.971-0.945-1.939-1.42-2.908c-0.367-0.752-0.23-0.936-1.041-0.643c-7.271,2.625-14.391,5.65-21.355,8.998     c-16.805,8.078-33.145,17.945-47.258,30.191c-14.646,12.707-27.654,27.381-36.574,44.721     c-8.943,17.389-13.643,36.518-13.912,56.063c-0.133,9.852,1.146,19.521,2.941,29.184c1.818,9.791,5.121,19.123,8.516,28.455     c2.318,6.732,5.961,12.953,8.506,19.604c1.656,4.328,2.861,8.682,3.896,13.186c0.953,4.148,1.133,8.771,0.643,12.994     c-0.48,4.143-1.887,7.734-3.979,11.306c-2.197,3.748-5.549,6.987-8.752,9.877c-3.389,3.059-7.027,5.823-10.812,8.371     c-16.141,10.856-34.52,18.27-52.9,24.368c-0.593,0.197-1.188,0.379-1.781,0.572l-37.776,77.905     c0.518-0.172,1.038-0.334,1.556-0.508c9.101-3.029,18.152-6.215,27.103-9.67c3.841-1.482,7.658-3.014,11.472-4.568     c0.313-0.129,1.05-0.448,1.05-0.448s0.495,1.215,0.717,1.715c1.938,4.396,3.873,8.787,5.812,13.183     c0.8,1.813,1.601,3.629,2.399,5.44c0.138,0.313,0.274,0.629,0.414,0.94c0.006,0.017-2.73,1.261-3.295,1.517     c0.129-0.06,0.25-0.114,0.346-0.159c-0.1,0.047-0.235,0.108-0.444,0.204c-15.015,6.884-30.364,13.048-45.89,18.673     c-5.586,2.023-11.205,3.959-16.837,5.852l-45.024,92.852c6.834-2.465,13.628-5.039,20.391-7.648     c18.019-6.959,35.824-14.482,53.357-22.588c35.633-16.473,70.357-35.328,102.297-58.234     c30.525-22.016,59.324-48.219,78.301-81.114c9.527-16.517,16.473-34.782,19.074-53.728c2.66-19.358,0.836-39.19-5.188-57.772     c-3.971-12.25-9.643-24.102-16.756-34.852c-3.158-4.773-6.484-9.369-9.947-13.92c-1.967-2.58-4.131-5.012-6.264-7.455     c-3.205-3.674-5.84-7.859-8.459-11.953c-4.441-6.939-7.707-14.865-9.32-22.945c-1.992-9.973-1.287-19.959,1.338-29.74     c5.035-18.758,16.883-35.439,29.934-49.518c8.021-8.656,16.82-16.625,26.174-23.818c1.865-1.436,3.756-2.84,5.676-4.199     C466.758,20.401,466.6,20.608,465.85,19.072z M403.092,299.358c0,0-0.201,0.381-0.51,0.903c-0.072,0.109-0.096,0.144-0.102,0.148     c-8.385,12.725-18.254,23.93-29.76,33.943c-10.844,9.438-22.645,17.574-34.791,25.221c-3.59-6.113-7.18-12.229-10.77-18.344     c15.223-8.717,30.031-18.301,42.879-30.336c6.33-5.932,11.947-12.385,17.027-19.408l1.197-1.566L403.092,299.358      M402.489,199.344c-0.121-0.217-0.18-0.324,0.094,0.16c0.254,0.459,0.215,0.391,0.105,0.199     c8.68,15.752,14.639,33.172,14.564,51.32c-5.246-0.1-10.494-0.201-15.74-0.301c0.66-13.469-2.85-26.854-8.238-39.109     c-2.982-6.785-6.766-13.166-10.443-19.588c-3.178-5.543-5.941-11.195-8.627-16.988c2.039-0.92,4.078-1.84,6.117-2.758     c1.311-0.59,4.99-2.266,4.99-2.266l0.332,0.695c2.414,4.66,4.896,9.178,7.66,13.639     C396.393,189.333,399.608,194.237,402.489,199.344z M406.079,55.139c-9.127,10.514-17.299,21.643-23.01,34.42     c-5.342,11.959-8.377,24.941-8.166,38.061c-3.402-0.049-6.807-0.098-10.211-0.146c0.506-17.471,6.057-34.4,14.984-49.367     c4.535-7.607,9.904-14.607,15.695-21.293c1.395-1.611,2.891-3.137,4.355-4.684c0.527-0.555,2.143-2.352,2.143-2.352     s3.311,3.207,4.785,4.619c0.02,0.018,0.035,0.035,0.055,0.053C406.489,54.67,406.28,54.901,406.079,55.139z"
   id="path10" />
		</g>
		<path
   d="M291.195,210.11c0-70.35-57.233-127.584-127.583-127.584C93.263,82.526,36.03,139.76,36.03,210.11    c0,20.615,4.921,40.1,13.64,57.353l113.942,234.973l113.96-235.01C286.28,250.182,291.195,230.709,291.195,210.11z     M163.612,280.711c-38.931,0-70.604-31.671-70.604-70.602c0-38.932,31.674-70.605,70.604-70.605s70.604,31.674,70.604,70.605    C234.215,249.04,202.542,280.711,163.612,280.711z"
   id="path14" />
	</g>
</g>
<g
   id="g20">
</g>
<g
   id="g22">
</g>
<g
   id="g24">
</g>
<g
   id="g26">
</g>
<g
   id="g28">
</g>
<g
   id="g30">
</g>
<g
   id="g32">
</g>
<g
   id="g34">
</g>
<g
   id="g36">
</g>
<g
   id="g38">
</g>
<g
   id="g40">
</g>
<g
   id="g42">
</g>
<g
   id="g44">
</g>
<g
   id="g46">
</g>
<g
   id="g48">
</g>
<path
   inkscape:connector-curvature="0"
   style="fill:#4caf50;stroke-width:0.36485931"
   d="m 161.85489,116.21835 h -0.0474 v 0 c -52.33735,0 -94.897782,41.22194 -94.897782,91.9107 0,20.10548 6.691966,38.74037 18.070689,53.87117 l -11.829599,34.14483 36.485462,-11.29353 c 15.00945,9.62764 32.91404,15.18823 52.2187,15.18823 52.33735,0 94.89778,-41.23344 94.89778,-91.9107 0,-50.67726 -42.56043,-91.9107 -94.89778,-91.9107 z"
   id="path2-4" /><path
   inkscape:connector-curvature="0"
   style="fill:#fafafa;stroke-width:0.3404499"
   d="m 216.73979,239.24252 c -2.09738,5.95228 -10.42169,10.88885 -17.06157,12.3305 -4.54251,0.97203 -10.47603,1.74746 -30.45002,-6.57481 -25.54889,-10.63766 -42.0019,-36.7294 -43.28423,-38.42225 -1.228,-1.69285 -10.32388,-13.81585 -10.32388,-26.35386 0,-12.53802 6.3356,-18.64321 8.8894,-21.26439 2.09738,-2.15156 5.56403,-3.13451 8.88941,-3.13451 1.07585,0 2.04304,0.0546 2.91242,0.0983 2.5538,0.10921 3.83614,0.26212 5.52056,4.31404 2.09738,5.07855 7.20498,17.61656 7.81355,18.90532 0.61943,1.28875 1.23886,3.0362 0.36948,4.72906 -0.81504,1.74745 -1.53228,2.52289 -2.81461,4.00823 -1.28234,1.48534 -2.49947,2.62119 -3.7818,4.21574 -1.17367,1.38705 -2.49947,2.87239 -1.02152,5.43897 1.47794,2.51197 6.58555,10.88885 14.10568,17.61657 9.70445,8.68268 17.57233,11.45677 20.38695,12.63631 2.09738,0.87373 4.59684,0.66622 6.12912,-0.97203 1.94524,-2.10787 4.3469,-5.60279 6.79203,-9.04309 1.73876,-2.46829 3.93394,-2.7741 6.2378,-1.90037 2.34732,0.81913 14.76858,6.98984 17.32238,8.26767 2.55381,1.28875 4.23823,1.90036 4.85766,2.9816 0.60857,1.08124 0.60857,6.15979 -1.48881,12.123 z"
   id="path4-4" /></svg>